HIERARCHY
ROOT hips
{
  OFFSET 0 10.074487846421558 1.314567655973056
  CHANNELS 6 Xposition Yposition Zposition Yrotation Xrotation Zrotation
  JOINT spine
  {
    OFFSET -7.042773748992335e-31 0.5690686926897363 0
    CHANNELS 3 Yrotation Xrotation Zrotation
    JOINT chest
    {
      OFFSET 0 1.2435964857087873 0
      CHANNELS 3 Yrotation Xrotation Zrotation
      JOINT upperChest
      {
        OFFSET 0 1.194994586872362 0
        CHANNELS 3 Yrotation Xrotation Zrotation
        JOINT neck
        {
          OFFSET 0 1.515103653293861 0
          CHANNELS 3 Yrotation Xrotation Zrotation
          JOINT head
          {
            OFFSET 0 0.8111851616465653 0
            CHANNELS 3 Yrotation Xrotation Zrotation
            JOINT leftEye
            {
              OFFSET 0.27141371691966987 0.7490044407698551 0.18219031050045686
              CHANNELS 3 Yrotation Xrotation Zrotation
              End Site
              {
                OFFSET 0.27141371691966987 0.7490044407698551 0.18219031050045686
              }
            }
            JOINT rightEye
            {
              OFFSET -0.2714136877644943 0.7490044019380786 0.18219040411850668
              CHANNELS 3 Yrotation Xrotation Zrotation
              End Site
              {
                OFFSET -0.2714136877644943 0.7490044019380786 0.18219040411850668
              }
            }
          }
        }
        JOINT leftShoulder
        {
          OFFSET 0.4137993136083964 1.1593397335613034 0
          CHANNELS 3 Yrotation Xrotation Zrotation
          JOINT leftUpperArm
          {
            OFFSET 1.0096991868951026 0 0
            CHANNELS 3 Yrotation Xrotation Zrotation
            JOINT leftLowerArm
            {
              OFFSET 2.418380967671622 0 0
              CHANNELS 3 Yrotation Xrotation Zrotation
              JOINT leftHand
              {
                OFFSET 2.361538296260114 0 0
                CHANNELS 3 Yrotation Xrotation Zrotation
                JOINT leftIndexProximal
                {
                  OFFSET 0.7243699271447109 0.08118285989887508 0.2022042461579805
                  CHANNELS 3 Yrotation Xrotation Zrotation
                  JOINT leftIndexIntermediate
                  {
                    OFFSET 0.36553107045252053 -0.010567764853200323 -0.014102670024158437
                    CHANNELS 3 Yrotation Xrotation Zrotation
                    JOINT leftIndexDistal
                    {
                      OFFSET 0.22505120770060527 -0.007821041598631284 -0.007511611613336286
                      CHANNELS 3 Yrotation Xrotation Zrotation
                      End Site
                      {
                        OFFSET 0.22505120770060527 -0.007821041598631284 -0.007511611613336286
                      }
                    }
                  }
                }
                JOINT leftLittleProximal
                {
                  OFFSET 0.6721063881632002 0.08118279568569564 -0.3209324945517917
                  CHANNELS 3 Yrotation Xrotation Zrotation
                  JOINT leftLittleIntermediate
                  {
                    OFFSET 0.34587329423120616 5.3042709780015684e-8 -5.929537746918179e-8
                    CHANNELS 3 Yrotation Xrotation Zrotation
                    JOINT leftLittleDistal
                    {
                      OFFSET 0.1992782500022232 0.0030983716482184676 0.0038310952896712935
                      CHANNELS 3 Yrotation Xrotation Zrotation
                      End Site
                      {
                        OFFSET 0.1992782500022232 0.0030983716482184676 0.0038310952896712935
                      }
                    }
                  }
                }
                JOINT leftMiddleProximal
                {
                  OFFSET 0.7301229696860206 0.08118412848995638 0.022516891543707507
                  CHANNELS 3 Yrotation Xrotation Zrotation
                  JOINT leftMiddleIntermediate
                  {
                    OFFSET 0.4076277831942017 -0.000001240188283180288 -1.6203245635504349e-7
                    CHANNELS 3 Yrotation Xrotation Zrotation
                    JOINT leftMiddleDistal
                    {
                      OFFSET 0.2514739255593972 0.0000013850839168938478 -1.8644847207816007e-8
                      CHANNELS 3 Yrotation Xrotation Zrotation
                      End Site
                      {
                        OFFSET 0.2514739255593972 0.0000013850839168938478 -1.8644847207816007e-8
                      }
                    }
                  }
                }
                JOINT leftRingProximal
                {
                  OFFSET 0.7218060861525873 0.08118280646416753 -0.1494689818508163
                  CHANNELS 3 Yrotation Xrotation Zrotation
                  JOINT leftRingIntermediate
                  {
                    OFFSET 0.3781267508900358 0.000001373626195677602 -1.4143108284514483e-7
                    CHANNELS 3 Yrotation Xrotation Zrotation
                    JOINT leftRingDistal
                    {
                      OFFSET 0.21814333268795483 -0.0027137626495670197 -0.004991775417842292
                      CHANNELS 3 Yrotation Xrotation Zrotation
                      End Site
                      {
                        OFFSET 0.21814333268795483 -0.0027137626495670197 -0.004991775417842292
                      }
                    }
                  }
                }
                JOINT leftThumbProximal
                {
                  OFFSET 0.10743676110519984 -0.16423092885053192 -0.07708859146227388
                  CHANNELS 3 Yrotation Xrotation Zrotation
                  JOINT leftThumbIntermediate
                  {
                    OFFSET 0.40350402100066307 -0.01735099334274981 0.315629965828783
                    CHANNELS 3 Yrotation Xrotation Zrotation
                    JOINT leftThumbDistal
                    {
                      OFFSET 0.2320014489535681 -0.01842351809041043 0.21271298411519196
                      CHANNELS 3 Yrotation Xrotation Zrotation
                      End Site
                      {
                        OFFSET 0.2320014489535681 -0.01842351809041043 0.21271298411519196
                      }
                    }
                  }
                }
              }
            }
          }
        }
        JOINT rightShoulder
        {
          OFFSET -0.41379931360839656 1.1593397335613034 0
          CHANNELS 3 Yrotation Xrotation Zrotation
          JOINT rightUpperArm
          {
            OFFSET -1.0096991868951024 0 0
            CHANNELS 3 Yrotation Xrotation Zrotation
            JOINT rightLowerArm
            {
              OFFSET -2.4183809676716232 0 0
              CHANNELS 3 Yrotation Xrotation Zrotation
              JOINT rightHand
              {
                OFFSET -2.3615382962601132 0 0
                CHANNELS 3 Yrotation Xrotation Zrotation
                JOINT rightIndexProximal
                {
                  OFFSET -0.7243699271447109 0.08118285989887508 0.2022042461579805
                  CHANNELS 3 Yrotation Xrotation Zrotation
                  JOINT rightIndexIntermediate
                  {
                    OFFSET -0.36553107045252053 -0.010567764853200323 -0.014102670024158437
                    CHANNELS 3 Yrotation Xrotation Zrotation
                    JOINT rightIndexDistal
                    {
                      OFFSET -0.22505120770060527 -0.007821041598631284 -0.007511611613336286
                      CHANNELS 3 Yrotation Xrotation Zrotation
                      End Site
                      {
                        OFFSET -0.22505120770060527 -0.007821041598631284 -0.007511611613336286
                      }
                    }
                  }
                }
                JOINT rightLittleProximal
                {
                  OFFSET -0.6721063881632002 0.08118279568569564 -0.3209324945517917
                  CHANNELS 3 Yrotation Xrotation Zrotation
                  JOINT rightLittleIntermediate
                  {
                    OFFSET -0.34587329423120616 5.3042709780015684e-8 -5.929537746918179e-8
                    CHANNELS 3 Yrotation Xrotation Zrotation
                    JOINT rightLittleDistal
                    {
                      OFFSET -0.1992782500022232 0.0030983716482184676 0.0038310952896712935
                      CHANNELS 3 Yrotation Xrotation Zrotation
                      End Site
                      {
                        OFFSET -0.1992782500022232 0.0030983716482184676 0.0038310952896712935
                      }
                    }
                  }
                }
                JOINT rightMiddleProximal
                {
                  OFFSET -0.7301229696860206 0.08118412848995638 0.022516891543707507
                  CHANNELS 3 Yrotation Xrotation Zrotation
                  JOINT rightMiddleIntermediate
                  {
                    OFFSET -0.4076277831942017 -0.000001240188283180288 -1.6203245635504349e-7
                    CHANNELS 3 Yrotation Xrotation Zrotation
                    JOINT rightMiddleDistal
                    {
                      OFFSET -0.2514739255593972 0.0000013850839168938478 -1.8644847207816007e-8
                      CHANNELS 3 Yrotation Xrotation Zrotation
                      End Site
                      {
                        OFFSET -0.2514739255593972 0.0000013850839168938478 -1.8644847207816007e-8
                      }
                    }
                  }
                }
                JOINT rightRingProximal
                {
                  OFFSET -0.7218060861525873 0.08118280646416753 -0.1494689818508163
                  CHANNELS 3 Yrotation Xrotation Zrotation
                  JOINT rightRingIntermediate
                  {
                    OFFSET -0.3781267508900358 0.000001373626195677602 -1.4143108284514483e-7
                    CHANNELS 3 Yrotation Xrotation Zrotation
                    JOINT rightRingDistal
                    {
                      OFFSET -0.21814333268795483 -0.0027137626495670197 -0.004991775417842292
                      CHANNELS 3 Yrotation Xrotation Zrotation
                      End Site
                      {
                        OFFSET -0.21814333268795483 -0.0027137626495670197 -0.004991775417842292
                      }
                    }
                  }
                }
                JOINT rightThumbProximal
                {
                  OFFSET -0.10743676110519984 -0.16423092885053192 -0.07708859146227388
                  CHANNELS 3 Yrotation Xrotation Zrotation
                  JOINT rightThumbIntermediate
                  {
                    OFFSET -0.40350402100066307 -0.01735099334274981 0.315629965828783
                    CHANNELS 3 Yrotation Xrotation Zrotation
                    JOINT rightThumbDistal
                    {
                      OFFSET -0.2320014489535681 -0.01842351809041043 0.21271298411519196
                      CHANNELS 3 Yrotation Xrotation Zrotation
                      End Site
                      {
                        OFFSET -0.2320014489535681 -0.01842351809041043 0.21271298411519196
                      }
                    }
                  }
                }
              }
            }
          }
        }
      }
    }
  }
  JOINT leftUpperLeg
  {
    OFFSET 0.8487163290887698 -0.43932186100277326 0
    CHANNELS 3 Yrotation Xrotation Zrotation
    JOINT leftLowerLeg
    {
      OFFSET 0 -3.882816707004296 0
      CHANNELS 3 Yrotation Xrotation Zrotation
      JOINT leftFoot
      {
        OFFSET 0 -4.570431027442807 0.004629272230691511
        CHANNELS 3 Yrotation Xrotation Zrotation
        JOINT leftToes
        {
          OFFSET 0 -0.698875637876343 1.214565366696912
          CHANNELS 3 Yrotation Xrotation Zrotation
          End Site
          {
            OFFSET 0 -0.698875637876343 1.214565366696912
          }
        }
      }
    }
  }
  JOINT rightUpperLeg
  {
    OFFSET -0.8487163290887698 -0.43932186100277326 0
    CHANNELS 3 Yrotation Xrotation Zrotation
    JOINT rightLowerLeg
    {
      OFFSET 0 -3.882816707004296 0
      CHANNELS 3 Yrotation Xrotation Zrotation
      JOINT rightFoot
      {
        OFFSET 0 -4.570431027442807 0.004629272230691511
        CHANNELS 3 Yrotation Xrotation Zrotation
        JOINT rightToes
        {
          OFFSET 0 -0.698875637876343 1.214565366696912
          CHANNELS 3 Yrotation Xrotation Zrotation
          End Site
          {
            OFFSET 0 -0.698875637876343 1.214565366696912
          }
        }
      }
    }
  }
}
MOTION
Frames: 4
Frame Time: 0.03333333333333333
0.5474469065666199 -0.9954473190778081 -0.5191560983657837 -5.737863607838035 2.8893633623968418 4.136653083508079 0.5862836397143246 3.0651267126271544 -1.493151912809293 1.4064261282807309 12.277618428236513 -3.7457683494589205 0 0 0 1.2409313003093063 -0.9565209632287367 -1.8077622328149408 0.20539745513661972 -11.979480675293145 2.391663783877816 0 0 0 0 0 0 -13.848728722963987 -4.9535324498445945 -18.154376368928638 -13.245458376974703 13.864215565195504 -59.16967242323119 -91.22828164033025 21.515713345856504 8.387263034015408 3.1418844197779165 -1.257231782473797 14.283158237824722 2.9319079292825947 6.58332906269074 -80.93469617040195 5.234697578899502 5.1720152856578165 -98.64281686595682 3.9363456813061717 2.2967989691993766 -63.689973033693704 25.206020120415047 -5.183707188182445 -88.34421853733079 4.397198201470606 2.723433175312369 -73.81779756645349 2.5545272379635082 5.792282726472298 -89.89395834051314 10.08781279454305 1.757159957265551 -73.8295235074412 5.369028599866918 4.319783510234697 -89.60246365869085 5.452640300534511 2.430071814759656 -65.50971496371362 19.227076951059185 -0.6863177156926829 -80.26852794141146 4.280871012141116 5.111050026060774 -91.74082543282773 5.08483032461432 2.9619649368390295 -68.59837315105952 -0.025992721190151034 4.978567289300544 16.81133161307967 34.918784863089805 14.35664326809596 3.6722131835646064 -19.663876429064832 -5.291007934430827 1.1762908839875041 13.630707425641736 -3.4608818884184482 17.140867944221448 9.335391599414695 13.786232581830365 67.32890412431965 100.27074089818473 24.15820260103453 -10.534739477865465 21.216307785458806 -3.3959095435295445 -9.732477918578171 0.029211214745327098 4.024913384472129 80.99227841251941 -5.286191959032022 4.458809560683336 89.46634831529812 -3.223900483368652 1.0489957263825185 58.200247748688696 -25.536663620742075 -5.740073258478883 89.04191203663835 -4.309608264532625 2.531806163829641 71.10651241593338 -2.320436062008743 -0.5300044648809968 79.17170786906449 -9.964149777544524 1.1541885703510215 72.99849416510973 -5.34673347777154 3.986413179839155 85.26678821616683 -3.398367120988423 -2.5739091082802217 64.94827961864956 -19.15769377218235 -0.9154627385944942 79.21326405500211 -4.301095736178721 4.995280422635501 90.19132425713381 -2.919143748401606 -3.3013057019847123 68.695829534337 0.025274034164893277 4.975643616636606 -16.816155484183618 -34.77416399013768 14.508713295577907 -3.692222299563303 20.507164999984234 -5.491373029526291 0.3750145644683439 1.8771508339888896 -14.591620181217884 -10.293282280733386 18.493277841778685 42.00112720770775 10.417347328901569 -4.172544090837091 -32.52359564619364 3.1640425872088893 -0.4337173644803544 0.7969056780438492 -0.0014434570138681163 -3.003275828029779 -21.731119986148105 -9.246580940703101 -59.12518694993752 70.2367417282979 -65.44454421218417 1.9214648358854998 10.074127080225905 1.8745758506611017 5.003325394629361 -8.477181660937804 -6.034593081583182
0.5101341605186462 -0.5217210464948003 -0.47668859362602234 -7.941944643978016 3.4939408954688647 1.0881227806935554 -0.30630206392185483 2.7616352774758077 -0.9025864077114322 -1.6253137559020383 11.058093158639522 -0.6918777345021087 0 0 0 3.839482627916513 1.3154886637615892 -4.244715538270216 2.693856155196134 -11.260198186384873 0.9616916853056228 0 0 0 0 0 0 -14.551769016489802 -4.669629070393415 -16.450285359711888 -17.597454175865977 14.334992645203839 -59.46986502579154 -97.03627380635875 15.23301702291752 11.322132223599036 0.49954402415833093 -1.0917453368099093 16.379733768810965 2.715022774249197 6.314489620300551 -83.63731376507286 5.245248828356558 5.0988408721412535 -97.69578244806803 3.899771839587967 2.231972752924798 -62.74538119154948 25.455546405846444 -4.676345408403427 -90.00726732152224 4.396245946618844 2.7213356475041963 -73.7854686406941 2.557718414959165 5.790688276511158 -89.86132563382469 10.296187584240082 2.054040056429858 -75.74005391357477 5.368559283795537 4.305125405517071 -89.41240944262881 5.44592173858216 2.412287414557706 -65.32047215951211 19.49380854368479 -0.04507655844904284 -82.47759712874257 4.286410678783018 5.070760312431659 -91.2231418766055 5.070744720236983 2.9117701164007697 -68.0829358098538 -0.025992721190151034 4.978567289300544 16.81133161307967 36.55482265686628 11.229369984466956 4.000004048435074 -19.62379231428603 -5.3080182337855755 0.59057724892115 11.307199355435479 -2.5442935406238 14.724664601715315 11.981805545707227 22.017149616120133 68.96928643981961 100.47892477069037 25.19374370836724 -12.576049289221723 15.529346954346753 -5.589414393040409 -8.76778658347754 -0.21866913744445568 5.276728938747995 74.88216986607745 -5.275150623896555 4.183594643717806 85.94168088542035 -3.00697696662307 0.8574581497146141 54.679473655104594 -22.492264830516213 -7.01494321366161 76.02457785707425 -4.230530953918992 2.3740188515138785 68.82693866173027 -2.1209144363494925 -0.5986805499084364 76.88956942910178 -9.45186417086964 1.4820551673268088 65.70929909502843 -5.3273540377087665 3.831194601560317 83.24339609729228 -3.1492358968537446 -2.685881866144625 62.92522782187884 -18.338981641814602 -2.5826473627060147 72.08657869609809 -4.308777637629372 4.9316379729708935 89.37444192481618 -2.880346751888512 -3.3185912240266857 68.40862548240615 0.025274034164893277 4.975643616636606 -16.816155484183618 -38.162442391948346 10.20810955380061 -3.1373732952432527 20.085226451204203 -5.721838573386243 6.082847610310596 2.1876286505450473 0.039759868371050874 -7.495549165422665 12.461824284540228 22.185342597992673 4.462160729743958 -3.3905245532858843 -18.73900474420539 2.9142814659742085 0.6187980308317438 -12.114247389225714 -0.20618422518799273 -5.592766192601772 -26.81868656771026 -2.270275104033898 -29.814463922017847 61.578143090277905 -33.7339318980116 1.807132662157994 10.8406466992424 1.0026893707937592 5.47838771954234 -11.316482651453313 -6.243825188869626
0.48111140727996826 -0.3791400604718511 -0.4476550817489624 -8.854429924966047 4.056640789665576 -0.152426817485321 -0.49278122595277746 2.5878865410310743 -0.6759649379348959 -2.1827884597339247 10.392650642533699 0.6213629989692233 0 0 0 4.678931701884246 1.6780720201191004 -5.184083867278022 3.3629213987613666 -11.150955910435759 0.7631160338347583 0 0 0 0 0 0 -14.595888578366393 -4.6069364871851075 -16.115528747605875 -18.6696930763917 14.807984319344786 -59.64326648864812 -98.63092640863762 15.575284641007144 11.888449565945718 -1.214412297662266 -0.6421076251754886 15.646925198061906 2.748493891199878 6.328055747614664 -84.93980865904638 5.253235661283169 5.036661222955424 -96.89261224894427 3.8678884549828982 2.1775590410545336 -61.944184838853175 25.557964382193518 -4.459723731372639 -90.70867723623303 4.383094262410214 2.6905276652632497 -73.35158792908007 2.5688311645084836 5.77488604446234 -89.42483406332292 10.425223331952376 2.244526399841821 -76.58528237122981 5.367223078343498 4.270250181283355 -88.9609955516981 5.42984699141993 2.3702793200674117 -64.87066465343892 19.57517962546699 0.18795410967041448 -83.42806147087062 4.290352458085674 5.041799456321684 -90.85087892189397 5.060503227792922 2.8756519116429584 -67.71234113349365 -0.025992721190151034 4.978567289300544 16.81133161307967 37.4804913927731 9.526479963485249 4.10753667419352 -19.60909034617709 -5.314102304532313 0.37663513204945925 10.598325420936149 -2.267027752430839 13.885416003286371 11.89987699668426 24.14534076568986 69.21494843319584 100.57998268110984 25.67569851221997 -13.023911300409488 12.465033548394082 -6.648574363694524 -7.140521520067912 -0.33839024410753205 5.598243905287657 73.76034741252816 -5.26830605825773 4.099024827862105 84.85631821852145 -2.9378473889915924 0.8011860082074278 53.594947956942526 -22.067030287517895 -7.303577691229854 74.04657221845538 -4.217686331532396 2.349599818371779 68.47109808551426 -2.089516314182957 -0.6086783673625645 76.53329499189745 -9.367339288290452 1.4653804683441156 64.2056817952785 -5.32173905991052 3.793258177576735 82.74753319568785 -3.087592396820909 -2.7119867779225784 62.42935442653528 -18.16871388224301 -2.8731023240624673 70.79234747966049 -4.310282837755906 4.918291171800563 89.20319623796252 -2.8577821000939703 -3.328535202299097 68.24175150142824 0.025274034164893277 4.975643616636606 -16.816155484183618 -38.14597053805894 10.225479229308073 -3.1505071165253193 20.041358292742526 -5.746331242272863 6.699208693747412 3.0521912290454933 4.847396060371171 -6.158239513479283 10.323590302533814 14.557711671508473 2.5987228662722206 -2.7045999421319555 -11.26635551729278 3.139175706327737 0.8455336690067872 -17.317051942745536 -0.0992759237822434 -6.63938855026966 -27.24312761219647 0.6551572902913846 -22.10079386606392 55.78442211993394 -25.25422503272588 1.8278297804808679 9.974668921769517 1.504167725943641 5.447087180481263 -13.08110524291755 -1.9449624836806765
0.42195117473602295 -0.17776314549382377 -0.3875146508216858 -10.332478095714134 5.764480471006914 -2.4073771145042615 -0.7833870422219102 2.174313000974593 -0.1317213380114328 -2.9528386577982824 8.807300671466475 3.0117287306474525 0 0 0 6.0532124565183105 1.4376903199687971 -6.84804993944596 4.236255382955475 -11.386587084828918 0.9906427991623947 0 0 0 0 0 0 -14.674047188353738 -4.535328108208784 -15.702001277093396 -20.849390260249763 16.176579412429728 -59.76241669203429 -101.74365218422415 17.321146142904936 12.95245221076255 -4.682282132990945 0.10793550224159992 14.152308440718786 2.9648558304430277 6.569751375040023 -85.59142058591489 5.274041864039376 4.821737238573173 -94.12705594476051 3.75240556742361 1.9937849559494498 -59.18466788527922 25.563203579099174 -4.440004872005974 -90.8328725645668 4.359971216028128 2.6380212438019743 -72.60818236858879 2.5877472522206584 5.7475351376216866 -88.67700520401786 10.562099134885466 2.432963161133654 -76.68571681039714 5.36245678146467 4.179324654588459 -87.78263205071293 5.38632848054065 2.261215846903053 -63.69619528354117 19.583031318545288 0.20998254985833442 -83.49752408051607 4.297295527120652 4.98692487406478 -90.14624209227533 5.040317156218605 2.8076728218916345 -67.01074852624009 -0.025992721190151034 4.978567289300544 16.81133161307967 38.233806043669496 8.155424817757144 4.18433189432629 -19.58521638665163 -5.3239408684413165 0.028711338525133263 9.31158487920229 -1.7345326695251462 12.067846663557729 10.284317202323152 27.53804486949505 69.33689270309988 101.28433210463054 27.095146051363695 -13.798647839580237 5.530462492991262 -8.40194001742438 -1.362722802150182 -0.4659764636465828 5.838975594448334 73.41290004151172 -5.260724941644944 4.022364992124812 83.87101623356641 -2.8741977055723718 0.7512908444874175 52.61032506110704 -21.895270678102168 -7.469493016592309 73.2547965201188 -4.216630195977913 2.3471531961943617 68.43887040666239 -2.0865858276118803 -0.6095906226968695 76.50100036674685 -9.333293873706685 1.4477647343061195 63.54680874920057 -5.316698804262273 3.7606624464942238 82.32093686895168 -3.034345371107049 -2.73399651426888 62.00256777631345 -18.102659387795438 -2.9817889014364662 70.30316641640198 -4.311274400524386 4.909569835226642 89.0904808292281 -2.8372963796933246 -3.337474605865667 68.0907713505816 0.025274034164893277 4.975643616636606 -16.816155484183618 -37.87298524613123 10.557442473419984 -3.208711993739235 20.02209116230932 -5.751901961152338 6.913781211424988 5.156265943313337 9.099850219165841 -3.052776336063622 8.675823847065496 7.157628093588235 0.9796023733270064 -2.970074616011366 6.285832526423546 0.5781011070605291 -0.5092771334052261 -27.651644353899584 2.4947243227193496 -8.475203190908031 -26.813723447446755 6.352542825815819 -10.024827092932394 42.10816941119821 -13.0424564674398 1.928065535545304 3.5527947576890204 5.01313860927867 4.1492774686894025 -8.144231499195872 -0.9831056197900752
